<svg xmlns="http://www.w3.org/2000/svg" viewBox="0 0 602.83 231.08"><defs><style>.cls-1{fill:#d0752a;}.cls-2{fill:#494949;}.cls-3{fill:#db9968;}.cls-4{fill:#a3501a;}.cls-5{font-size:86.54px;fill:#c6722e;font-family:CooperBlackStd, Cooper Std;}</style></defs><title>Recurso 1</title><g id="Capa_2" data-name="Capa 2"><g id="Capa_1-2" data-name="Capa 1"><path class="cls-1" d="M228.71,115.53A113.3,113.3,0,1,1,115.41,2.23,113.3,113.3,0,0,1,228.71,115.53Zm-112.63-8.72c-3,0-5.36,3.45-5.36,7.71s2.4,7.71,5.36,7.71,5.37-3.45,5.37-7.71S119.05,106.81,116.08,106.81Z"/><path class="cls-2" d="M226.39,115.53c-.29,46.5-29.91,89.19-74,104.67-43.79,15.36-93.47,1.38-122.9-34.44C-.1,149.76-3.58,97.33,20.72,57.64s72-60.28,117.41-50.76c51.05,10.68,87.94,56.69,88.26,108.65,0,3,4.67,3,4.65,0-.29-48-30.44-91.7-75.54-108.48C109.94-9.9,57,4.49,26.18,42s-34.92,91.66-9.82,133.2c25,41.37,74.28,63.06,121.67,53.74,46.89-9.23,84.38-48.25,91.61-95.5a123.53,123.53,0,0,0,1.4-17.91C231.06,112.53,226.4,112.53,226.39,115.53Z"/><path class="cls-2" d="M116.08,104.48c-10.12.91-10.34,20.08,0,20.08s10.13-19.17,0-20.08c-3-.26-3,4.39,0,4.66,4.13.37,4.19,10.76,0,10.76s-4.11-10.39,0-10.76C119,108.87,119.07,104.22,116.08,104.48Z"/><path class="cls-3" d="M210,56.72a113.32,113.32,0,0,1-199.53,107A113.32,113.32,0,1,0,210,56.72Z"/><path class="cls-4" d="M43.7,203.26A113.32,113.32,0,0,1,194.58,34.44,113.32,113.32,0,1,0,43.7,203.26Z"/><path class="cls-2" d="M226.39,115.53c-.29,46.5-29.91,89.19-74,104.67-43.79,15.36-93.47,1.38-122.9-34.44C-.1,149.76-3.58,97.33,20.72,57.64s72-60.28,117.41-50.76c51.05,10.68,87.94,56.69,88.26,108.65,0,3,4.67,3,4.65,0-.29-48-30.44-91.7-75.54-108.48C109.94-9.9,57,4.49,26.18,42s-34.92,91.66-9.82,133.2c25,41.37,74.28,63.06,121.67,53.74,46.89-9.23,84.38-48.25,91.61-95.5a123.53,123.53,0,0,0,1.4-17.91C231.06,112.53,226.4,112.53,226.39,115.53Z"/><text class="cls-5" transform="translate(250.89 88.7)">TF <tspan x="0" y="103.84">Recetas</tspan></text></g></g></svg>